<svg xmlns="http://www.w3.org/2000/svg" width="48" height="49" viewBox="0 0 48 49" fill="none">
<path 
d="M26.0363 1.82871C25.7123 0.983498 24.9028 0.425781 24 0.425781C23.0972 0.425781 22.2877 0.983498 21.9637 1.82871L17.5739 13.2774C16.9185 14.9868 16.7125 15.4793 16.4308 15.8768C16.1481 16.2756 15.8008 16.624 15.4032 16.9075C15.007 17.1901 14.516 17.3967 12.8119 18.0542L1.39859 22.4576C0.555993 22.7826 0 23.5946 0 24.5002C0 25.4059 0.555993 26.2178 1.39859 26.5428L12.8119 30.9463C14.516 31.6037 15.007 31.8103 15.4032 32.0929C15.8008 32.3765 16.1481 32.7249 16.4308 33.1237C16.7125 33.5211 16.9185 34.0138 17.5739 35.7231L21.9637 47.1718C22.2877 48.017 23.0972 48.5747 24 48.5747C24.9028 48.5747 25.7123 48.017 26.0363 47.1718L30.4261 35.7231C31.0815 34.0138 31.2875 33.5211 31.5692 33.1237C31.8519 32.7249 32.1993 32.3765 32.5968 32.0929C32.993 31.8103 33.4841 31.6037 35.1881 30.9463L46.6015 26.5428C47.4441 26.2178 48 25.4059 48 24.5002C48 23.5946 47.4441 22.7826 46.6015 22.4576L35.1881 18.0542C33.4841 17.3967 32.993 17.1901 32.5968 16.9075C32.1993 16.624 31.8519 16.2756 31.5692 15.8768C31.2875 15.4793 31.0815 14.9868 30.4261 13.2774L26.0363 1.82871Z"
fill="#fff"></path> ==$0
</svg>